<svg width="316" height="52" viewBox="0 0 316 52" fill="none" xmlns="http://www.w3.org/2000/svg">
<path d="M58.2152 0.5H44.3082V6.42875H54.5499V45.5713H44.3082V51.5H58.2152C59.491 51.5 60.5263 50.4729 60.5263 49.2074V2.79264C60.5263 1.52708 59.491 0.5 58.2152 0.5Z" fill="#00BFA5"/>
<path d="M2.31109 0.5H16.2181V6.42875H5.97647V45.5713H16.2181V51.5H2.31109C1.03535 51.5 0 50.4729 0 49.2074V45.5713V6.42875V2.79264C0 1.52708 1.03535 0.5 2.31109 0.5Z" fill="#4285F4"/>
<path d="M48.9614 10.8984H39.5076V41.0994H48.9614V10.8984Z" fill="#00BFA5"/>
<path d="M48.9614 41.1018H39.5075L25.5363 15.5215H34.9901L48.9614 41.1018Z" fill="#1CE9B6"/>
<path d="M11.565 41.1016H21.0188L21.0188 10.9006H11.565L11.565 41.1016Z" fill="#4285F4"/>
<path d="M11.5649 41.1008H21.0188L34.9924 15.5205H25.5362L11.5649 41.1008Z" fill="#4FC3F7"/>
<path d="M82.5381 21.168L85.9365 7.9375H87.7178L87.5186 11.3477L83.8857 25H82.0342L82.5381 21.168ZM79.9951 7.9375L82.749 21.0625L82.9951 25H81.0264L77.0771 7.9375H79.9951ZM91.5732 21.0273L94.292 7.9375H97.2217L93.2725 25H91.3037L91.5732 21.0273ZM88.4092 7.9375L91.7725 21.2031L92.2646 25H90.4131L86.8389 11.3477L86.6514 7.9375H88.4092ZM98.2061 18.8008V18.5312C98.2061 17.6172 98.3389 16.7695 98.6045 15.9883C98.8701 15.1992 99.2529 14.5156 99.7529 13.9375C100.261 13.3516 100.878 12.8984 101.604 12.5781C102.339 12.25 103.167 12.0859 104.089 12.0859C105.019 12.0859 105.847 12.25 106.573 12.5781C107.308 12.8984 107.929 13.3516 108.437 13.9375C108.944 14.5156 109.331 15.1992 109.597 15.9883C109.862 16.7695 109.995 17.6172 109.995 18.5312V18.8008C109.995 19.7148 109.862 20.5625 109.597 21.3438C109.331 22.125 108.944 22.8086 108.437 23.3945C107.929 23.9727 107.312 24.4258 106.585 24.7539C105.858 25.0742 105.034 25.2344 104.112 25.2344C103.183 25.2344 102.351 25.0742 101.616 24.7539C100.89 24.4258 100.272 23.9727 99.7646 23.3945C99.2568 22.8086 98.8701 22.125 98.6045 21.3438C98.3389 20.5625 98.2061 19.7148 98.2061 18.8008ZM101.03 18.5312V18.8008C101.03 19.3711 101.089 19.9102 101.206 20.418C101.323 20.9258 101.507 21.3711 101.757 21.7539C102.007 22.1367 102.327 22.4375 102.718 22.6562C103.108 22.875 103.573 22.9844 104.112 22.9844C104.636 22.9844 105.089 22.875 105.472 22.6562C105.862 22.4375 106.183 22.1367 106.433 21.7539C106.683 21.3711 106.866 20.9258 106.983 20.418C107.108 19.9102 107.171 19.3711 107.171 18.8008V18.5312C107.171 17.9688 107.108 17.4375 106.983 16.9375C106.866 16.4297 106.679 15.9805 106.421 15.5898C106.171 15.1992 105.851 14.8945 105.46 14.6758C105.077 14.4492 104.62 14.3359 104.089 14.3359C103.558 14.3359 103.097 14.4492 102.706 14.6758C102.323 14.8945 102.007 15.1992 101.757 15.5898C101.507 15.9805 101.323 16.4297 101.206 16.9375C101.089 17.4375 101.03 17.9688 101.03 18.5312ZM115.187 14.8984V25H112.362V12.3203H115.022L115.187 14.8984ZM114.729 18.1914L113.769 18.1797C113.769 17.3047 113.878 16.4961 114.097 15.7539C114.315 15.0117 114.636 14.3672 115.058 13.8203C115.479 13.2656 116.003 12.8398 116.628 12.543C117.261 12.2383 117.991 12.0859 118.819 12.0859C119.397 12.0859 119.925 12.1719 120.401 12.3438C120.886 12.5078 121.304 12.7695 121.655 13.1289C122.015 13.4883 122.288 13.9492 122.476 14.5117C122.671 15.0742 122.769 15.7539 122.769 16.5508V25H119.944V16.7969C119.944 16.1797 119.851 15.6953 119.663 15.3438C119.483 14.9922 119.222 14.7422 118.878 14.5938C118.542 14.4375 118.14 14.3594 117.671 14.3594C117.14 14.3594 116.687 14.4609 116.312 14.6641C115.944 14.8672 115.644 15.1445 115.409 15.4961C115.175 15.8477 115.003 16.2539 114.894 16.7148C114.784 17.1758 114.729 17.668 114.729 18.1914ZM122.593 17.4414L121.269 17.7344C121.269 16.9688 121.374 16.2461 121.585 15.5664C121.804 14.8789 122.12 14.2773 122.534 13.7617C122.956 13.2383 123.476 12.8281 124.093 12.5312C124.71 12.2344 125.417 12.0859 126.214 12.0859C126.862 12.0859 127.44 12.1758 127.948 12.3555C128.464 12.5273 128.901 12.8008 129.261 13.1758C129.62 13.5508 129.894 14.0391 130.081 14.6406C130.269 15.2344 130.362 15.9531 130.362 16.7969V25H127.526V16.7852C127.526 16.1445 127.433 15.6484 127.245 15.2969C127.065 14.9453 126.808 14.7031 126.472 14.5703C126.136 14.4297 125.733 14.3594 125.265 14.3594C124.827 14.3594 124.44 14.4414 124.104 14.6055C123.776 14.7617 123.499 14.9844 123.272 15.2734C123.046 15.5547 122.874 15.8789 122.757 16.2461C122.647 16.6133 122.593 17.0117 122.593 17.4414ZM138.858 25.2344C137.921 25.2344 137.073 25.082 136.315 24.7773C135.565 24.4648 134.925 24.0312 134.394 23.4766C133.87 22.9219 133.468 22.2695 133.187 21.5195C132.905 20.7695 132.765 19.9609 132.765 19.0938V18.625C132.765 17.6328 132.909 16.7344 133.198 15.9297C133.487 15.125 133.89 14.4375 134.405 13.8672C134.921 13.2891 135.53 12.8477 136.233 12.543C136.937 12.2383 137.698 12.0859 138.519 12.0859C139.425 12.0859 140.218 12.2383 140.897 12.543C141.577 12.8477 142.14 13.2773 142.585 13.832C143.038 14.3789 143.374 15.0312 143.593 15.7891C143.819 16.5469 143.933 17.3828 143.933 18.2969V19.5039H134.136V17.4766H141.144V17.2539C141.128 16.7461 141.026 16.2695 140.839 15.8242C140.659 15.3789 140.382 15.0195 140.007 14.7461C139.632 14.4727 139.132 14.3359 138.507 14.3359C138.038 14.3359 137.62 14.4375 137.253 14.6406C136.894 14.8359 136.593 15.1211 136.351 15.4961C136.108 15.8711 135.921 16.3242 135.788 16.8555C135.663 17.3789 135.601 17.9688 135.601 18.625V19.0938C135.601 19.6484 135.675 20.1641 135.823 20.6406C135.979 21.1094 136.206 21.5195 136.503 21.8711C136.8 22.2227 137.159 22.5 137.581 22.7031C138.003 22.8984 138.483 22.9961 139.022 22.9961C139.702 22.9961 140.308 22.8594 140.839 22.5859C141.37 22.3125 141.831 21.9258 142.222 21.4258L143.71 22.8672C143.437 23.2656 143.081 23.6484 142.644 24.0156C142.206 24.375 141.671 24.668 141.038 24.8945C140.413 25.1211 139.687 25.2344 138.858 25.2344ZM148.937 15.0273V25H146.112V12.3203H148.772L148.937 15.0273ZM148.433 18.1914L147.519 18.1797C147.526 17.2812 147.651 16.457 147.894 15.707C148.144 14.957 148.487 14.3125 148.925 13.7734C149.37 13.2344 149.901 12.8203 150.519 12.5312C151.136 12.2344 151.823 12.0859 152.581 12.0859C153.19 12.0859 153.741 12.1719 154.233 12.3438C154.733 12.5078 155.159 12.7773 155.511 13.1523C155.87 13.5273 156.144 14.0156 156.331 14.6172C156.519 15.2109 156.612 15.9414 156.612 16.8086V25H153.776V16.7969C153.776 16.1875 153.687 15.707 153.507 15.3555C153.335 14.9961 153.081 14.7422 152.745 14.5938C152.417 14.4375 152.007 14.3594 151.515 14.3594C151.03 14.3594 150.597 14.4609 150.214 14.6641C149.831 14.8672 149.507 15.1445 149.241 15.4961C148.983 15.8477 148.784 16.2539 148.644 16.7148C148.503 17.1758 148.433 17.668 148.433 18.1914ZM178.187 7.9375V25H175.269V7.9375H178.187ZM183.542 7.9375V10.2812H169.96V7.9375H183.542ZM189.976 25.2344C189.038 25.2344 188.19 25.082 187.433 24.7773C186.683 24.4648 186.042 24.0312 185.511 23.4766C184.987 22.9219 184.585 22.2695 184.304 21.5195C184.022 20.7695 183.882 19.9609 183.882 19.0938V18.625C183.882 17.6328 184.026 16.7344 184.315 15.9297C184.604 15.125 185.007 14.4375 185.522 13.8672C186.038 13.2891 186.647 12.8477 187.351 12.543C188.054 12.2383 188.815 12.0859 189.636 12.0859C190.542 12.0859 191.335 12.2383 192.015 12.543C192.694 12.8477 193.257 13.2773 193.702 13.832C194.155 14.3789 194.491 15.0312 194.71 15.7891C194.937 16.5469 195.05 17.3828 195.05 18.2969V19.5039H185.253V17.4766H192.261V17.2539C192.245 16.7461 192.144 16.2695 191.956 15.8242C191.776 15.3789 191.499 15.0195 191.124 14.7461C190.749 14.4727 190.249 14.3359 189.624 14.3359C189.155 14.3359 188.737 14.4375 188.37 14.6406C188.011 14.8359 187.71 15.1211 187.468 15.4961C187.226 15.8711 187.038 16.3242 186.905 16.8555C186.78 17.3789 186.718 17.9688 186.718 18.625V19.0938C186.718 19.6484 186.792 20.1641 186.94 20.6406C187.097 21.1094 187.323 21.5195 187.62 21.8711C187.917 22.2227 188.276 22.5 188.698 22.7031C189.12 22.8984 189.601 22.9961 190.14 22.9961C190.819 22.9961 191.425 22.8594 191.956 22.5859C192.487 22.3125 192.948 21.9258 193.339 21.4258L194.827 22.8672C194.554 23.2656 194.198 23.6484 193.761 24.0156C193.323 24.375 192.788 24.668 192.155 24.8945C191.53 25.1211 190.804 25.2344 189.976 25.2344ZM202.433 22.9844C202.894 22.9844 203.308 22.8945 203.675 22.7148C204.05 22.5273 204.351 22.2695 204.577 21.9414C204.812 21.6133 204.94 21.2344 204.964 20.8047H207.624C207.608 21.625 207.366 22.3711 206.897 23.043C206.429 23.7148 205.808 24.25 205.034 24.6484C204.261 25.0391 203.405 25.2344 202.468 25.2344C201.499 25.2344 200.655 25.0703 199.937 24.7422C199.218 24.4062 198.62 23.9453 198.144 23.3594C197.667 22.7734 197.308 22.0977 197.065 21.332C196.831 20.5664 196.714 19.7461 196.714 18.8711V18.4609C196.714 17.5859 196.831 16.7656 197.065 16C197.308 15.2266 197.667 14.5469 198.144 13.9609C198.62 13.375 199.218 12.918 199.937 12.5898C200.655 12.2539 201.495 12.0859 202.456 12.0859C203.472 12.0859 204.362 12.2891 205.128 12.6953C205.894 13.0938 206.495 13.6523 206.933 14.3711C207.378 15.082 207.608 15.9102 207.624 16.8555H204.964C204.94 16.3867 204.823 15.9648 204.612 15.5898C204.409 15.207 204.12 14.9023 203.745 14.6758C203.378 14.4492 202.937 14.3359 202.421 14.3359C201.851 14.3359 201.378 14.4531 201.003 14.6875C200.628 14.9141 200.335 15.2266 200.124 15.625C199.913 16.0156 199.761 16.457 199.667 16.9492C199.581 17.4336 199.538 17.9375 199.538 18.4609V18.8711C199.538 19.3945 199.581 19.9023 199.667 20.3945C199.753 20.8867 199.901 21.3281 200.112 21.7188C200.331 22.1016 200.628 22.4102 201.003 22.6445C201.378 22.8711 201.854 22.9844 202.433 22.9844ZM212.581 7V25H209.769V7H212.581ZM212.089 18.1914L211.175 18.1797C211.183 17.3047 211.304 16.4961 211.538 15.7539C211.78 15.0117 212.116 14.3672 212.546 13.8203C212.983 13.2656 213.507 12.8398 214.116 12.543C214.726 12.2383 215.401 12.0859 216.144 12.0859C216.769 12.0859 217.331 12.1719 217.831 12.3438C218.339 12.5156 218.776 12.793 219.144 13.1758C219.511 13.5508 219.788 14.043 219.976 14.6523C220.171 15.2539 220.269 15.9883 220.269 16.8555V25H217.433V16.832C217.433 16.2227 217.343 15.7383 217.163 15.3789C216.991 15.0195 216.737 14.7617 216.401 14.6055C216.065 14.4414 215.655 14.3594 215.171 14.3594C214.663 14.3594 214.214 14.4609 213.823 14.6641C213.44 14.8672 213.12 15.1445 212.862 15.4961C212.604 15.8477 212.409 16.2539 212.276 16.7148C212.151 17.1758 212.089 17.668 212.089 18.1914ZM225.952 14.8984V25H223.128V12.3203H225.788L225.952 14.8984ZM225.495 18.1914L224.534 18.1797C224.534 17.3047 224.644 16.4961 224.862 15.7539C225.081 15.0117 225.401 14.3672 225.823 13.8203C226.245 13.2656 226.769 12.8398 227.394 12.543C228.026 12.2383 228.757 12.0859 229.585 12.0859C230.163 12.0859 230.69 12.1719 231.167 12.3438C231.651 12.5078 232.069 12.7695 232.421 13.1289C232.78 13.4883 233.054 13.9492 233.241 14.5117C233.437 15.0742 233.534 15.7539 233.534 16.5508V25H230.71V16.7969C230.71 16.1797 230.616 15.6953 230.429 15.3438C230.249 14.9922 229.987 14.7422 229.644 14.5938C229.308 14.4375 228.905 14.3594 228.437 14.3594C227.905 14.3594 227.452 14.4609 227.077 14.6641C226.71 14.8672 226.409 15.1445 226.175 15.4961C225.94 15.8477 225.769 16.2539 225.659 16.7148C225.55 17.1758 225.495 17.668 225.495 18.1914ZM233.358 17.4414L232.034 17.7344C232.034 16.9688 232.14 16.2461 232.351 15.5664C232.569 14.8789 232.886 14.2773 233.3 13.7617C233.722 13.2383 234.241 12.8281 234.858 12.5312C235.476 12.2344 236.183 12.0859 236.979 12.0859C237.628 12.0859 238.206 12.1758 238.714 12.3555C239.229 12.5273 239.667 12.8008 240.026 13.1758C240.386 13.5508 240.659 14.0391 240.847 14.6406C241.034 15.2344 241.128 15.9531 241.128 16.7969V25H238.292V16.7852C238.292 16.1445 238.198 15.6484 238.011 15.2969C237.831 14.9453 237.573 14.7031 237.237 14.5703C236.901 14.4297 236.499 14.3594 236.03 14.3594C235.593 14.3594 235.206 14.4414 234.87 14.6055C234.542 14.7617 234.265 14.9844 234.038 15.2734C233.812 15.5547 233.64 15.8789 233.522 16.2461C233.413 16.6133 233.358 17.0117 233.358 17.4414ZM251.183 22.457V16.4102C251.183 15.957 251.101 15.5664 250.937 15.2383C250.772 14.9102 250.522 14.6562 250.187 14.4766C249.858 14.2969 249.444 14.207 248.944 14.207C248.483 14.207 248.085 14.2852 247.749 14.4414C247.413 14.5977 247.151 14.8086 246.964 15.0742C246.776 15.3398 246.683 15.6406 246.683 15.9766H243.87C243.87 15.4766 243.991 14.9922 244.233 14.5234C244.476 14.0547 244.827 13.6367 245.288 13.2695C245.749 12.9023 246.3 12.6133 246.94 12.4023C247.581 12.1914 248.3 12.0859 249.097 12.0859C250.05 12.0859 250.894 12.2461 251.628 12.5664C252.37 12.8867 252.952 13.3711 253.374 14.0195C253.804 14.6602 254.019 15.4648 254.019 16.4336V22.0703C254.019 22.6484 254.058 23.168 254.136 23.6289C254.222 24.082 254.343 24.4766 254.499 24.8125V25H251.604C251.472 24.6953 251.366 24.3086 251.288 23.8398C251.218 23.3633 251.183 22.9023 251.183 22.457ZM251.593 17.2891L251.616 19.0352H249.589C249.065 19.0352 248.604 19.0859 248.206 19.1875C247.808 19.2812 247.476 19.4219 247.21 19.6094C246.944 19.7969 246.745 20.0234 246.612 20.2891C246.479 20.5547 246.413 20.8555 246.413 21.1914C246.413 21.5273 246.491 21.8359 246.647 22.1172C246.804 22.3906 247.03 22.6055 247.327 22.7617C247.632 22.918 247.999 22.9961 248.429 22.9961C249.007 22.9961 249.511 22.8789 249.94 22.6445C250.378 22.4023 250.722 22.1094 250.972 21.7656C251.222 21.4141 251.354 21.082 251.37 20.7695L252.284 22.0234C252.19 22.3438 252.03 22.6875 251.804 23.0547C251.577 23.4219 251.28 23.7734 250.913 24.1094C250.554 24.4375 250.12 24.707 249.612 24.918C249.112 25.1289 248.534 25.2344 247.878 25.2344C247.05 25.2344 246.312 25.0703 245.663 24.7422C245.015 24.4062 244.507 23.957 244.14 23.3945C243.772 22.8242 243.589 22.1797 243.589 21.4609C243.589 20.7891 243.714 20.1953 243.964 19.6797C244.222 19.1562 244.597 18.7188 245.089 18.3672C245.589 18.0156 246.198 17.75 246.917 17.5703C247.636 17.3828 248.456 17.2891 249.378 17.2891H251.593ZM259.819 7V25H256.983V7H259.819ZM267.694 12.3203L262.175 18.4375L259.151 21.5312L258.413 19.1406L260.698 16.3164L264.284 12.3203H267.694ZM264.894 25L260.78 19.0469L262.562 17.0664L268.163 25H264.894ZM274.843 25.2344C273.905 25.2344 273.058 25.082 272.3 24.7773C271.55 24.4648 270.909 24.0312 270.378 23.4766C269.854 22.9219 269.452 22.2695 269.171 21.5195C268.89 20.7695 268.749 19.9609 268.749 19.0938V18.625C268.749 17.6328 268.894 16.7344 269.183 15.9297C269.472 15.125 269.874 14.4375 270.39 13.8672C270.905 13.2891 271.515 12.8477 272.218 12.543C272.921 12.2383 273.683 12.0859 274.503 12.0859C275.409 12.0859 276.202 12.2383 276.882 12.543C277.562 12.8477 278.124 13.2773 278.569 13.832C279.022 14.3789 279.358 15.0312 279.577 15.7891C279.804 16.5469 279.917 17.3828 279.917 18.2969V19.5039H270.12V17.4766H277.128V17.2539C277.112 16.7461 277.011 16.2695 276.823 15.8242C276.644 15.3789 276.366 15.0195 275.991 14.7461C275.616 14.4727 275.116 14.3359 274.491 14.3359C274.022 14.3359 273.604 14.4375 273.237 14.6406C272.878 14.8359 272.577 15.1211 272.335 15.4961C272.093 15.8711 271.905 16.3242 271.772 16.8555C271.647 17.3789 271.585 17.9688 271.585 18.625V19.0938C271.585 19.6484 271.659 20.1641 271.808 20.6406C271.964 21.1094 272.19 21.5195 272.487 21.8711C272.784 22.2227 273.144 22.5 273.565 22.7031C273.987 22.8984 274.468 22.9961 275.007 22.9961C275.687 22.9961 276.292 22.8594 276.823 22.5859C277.354 22.3125 277.815 21.9258 278.206 21.4258L279.694 22.8672C279.421 23.2656 279.065 23.6484 278.628 24.0156C278.19 24.375 277.655 24.668 277.022 24.8945C276.397 25.1211 275.671 25.2344 274.843 25.2344ZM284.956 14.7344V25H282.132V12.3203H284.827L284.956 14.7344ZM288.835 12.2383L288.812 14.8633C288.64 14.832 288.452 14.8086 288.249 14.793C288.054 14.7773 287.858 14.7695 287.663 14.7695C287.179 14.7695 286.753 14.8398 286.386 14.9805C286.019 15.1133 285.71 15.3086 285.46 15.5664C285.218 15.8164 285.03 16.1211 284.897 16.4805C284.765 16.8398 284.687 17.2422 284.663 17.6875L284.019 17.7344C284.019 16.9375 284.097 16.1992 284.253 15.5195C284.409 14.8398 284.644 14.2422 284.956 13.7266C285.276 13.2109 285.675 12.8086 286.151 12.5195C286.636 12.2305 287.194 12.0859 287.827 12.0859C287.999 12.0859 288.183 12.1016 288.378 12.1328C288.581 12.1641 288.733 12.1992 288.835 12.2383ZM297.718 21.5664C297.718 21.2852 297.647 21.0312 297.507 20.8047C297.366 20.5703 297.097 20.3594 296.698 20.1719C296.308 19.9844 295.729 19.8125 294.964 19.6562C294.292 19.5078 293.675 19.332 293.112 19.1289C292.558 18.918 292.081 18.6641 291.683 18.3672C291.284 18.0703 290.976 17.7188 290.757 17.3125C290.538 16.9062 290.429 16.4375 290.429 15.9062C290.429 15.3906 290.542 14.9023 290.769 14.4414C290.995 13.9805 291.319 13.5742 291.741 13.2227C292.163 12.8711 292.675 12.5938 293.276 12.3906C293.886 12.1875 294.565 12.0859 295.315 12.0859C296.378 12.0859 297.288 12.2656 298.046 12.625C298.812 12.9766 299.397 13.457 299.804 14.0664C300.21 14.668 300.413 15.3477 300.413 16.1055H297.589C297.589 15.7695 297.503 15.457 297.331 15.168C297.167 14.8711 296.917 14.6328 296.581 14.4531C296.245 14.2656 295.823 14.1719 295.315 14.1719C294.831 14.1719 294.429 14.25 294.108 14.4062C293.796 14.5547 293.562 14.75 293.405 14.9922C293.257 15.2344 293.183 15.5 293.183 15.7891C293.183 16 293.222 16.1914 293.3 16.3633C293.386 16.5273 293.526 16.6797 293.722 16.8203C293.917 16.9531 294.183 17.0781 294.519 17.1953C294.862 17.3125 295.292 17.4258 295.808 17.5352C296.776 17.7383 297.608 18 298.304 18.3203C299.007 18.6328 299.546 19.0391 299.921 19.5391C300.296 20.0312 300.483 20.6562 300.483 21.4141C300.483 21.9766 300.362 22.4922 300.12 22.9609C299.886 23.4219 299.542 23.8242 299.089 24.168C298.636 24.5039 298.093 24.7656 297.46 24.9531C296.835 25.1406 296.132 25.2344 295.351 25.2344C294.202 25.2344 293.229 25.0312 292.433 24.625C291.636 24.2109 291.03 23.6836 290.616 23.043C290.21 22.3945 290.007 21.7227 290.007 21.0273H292.737C292.769 21.5508 292.913 21.9688 293.171 22.2812C293.437 22.5859 293.765 22.8086 294.155 22.9492C294.554 23.082 294.964 23.1484 295.386 23.1484C295.894 23.1484 296.319 23.082 296.663 22.9492C297.007 22.8086 297.269 22.6211 297.448 22.3867C297.628 22.1445 297.718 21.8711 297.718 21.5664Z" fill="#3F4043"/>
<path d="M81.9014 38.6797H79.0186L79.0029 37.4688H81.6201C82.0524 37.4688 82.43 37.3958 82.7529 37.25C83.0758 37.1042 83.3258 36.8958 83.5029 36.625C83.6852 36.349 83.7764 36.0208 83.7764 35.6406C83.7764 35.224 83.6956 34.8854 83.5342 34.625C83.3779 34.3594 83.1357 34.1667 82.8076 34.0469C82.4847 33.9219 82.0732 33.8594 81.5732 33.8594H79.3545V44H77.8467V32.625H81.5732C82.1566 32.625 82.6774 32.6849 83.1357 32.8047C83.5941 32.9193 83.9821 33.1016 84.2998 33.3516C84.6227 33.5964 84.8675 33.9089 85.0342 34.2891C85.2008 34.6693 85.2842 35.125 85.2842 35.6562C85.2842 36.125 85.1644 36.5495 84.9248 36.9297C84.6852 37.3047 84.3519 37.612 83.9248 37.8516C83.5029 38.0911 83.0081 38.2448 82.4404 38.3125L81.9014 38.6797ZM81.8311 44H78.4248L79.2764 42.7734H81.8311C82.3102 42.7734 82.7165 42.6901 83.0498 42.5234C83.3883 42.3568 83.6462 42.1224 83.8232 41.8203C84.0003 41.513 84.0889 41.151 84.0889 40.7344C84.0889 40.3125 84.0133 39.9479 83.8623 39.6406C83.7113 39.3333 83.4743 39.0964 83.1514 38.9297C82.8285 38.763 82.4118 38.6797 81.9014 38.6797H79.7529L79.7686 37.4688H82.7061L83.0264 37.9062C83.5732 37.9531 84.0368 38.1094 84.417 38.375C84.7972 38.6354 85.0863 38.9688 85.2842 39.375C85.4873 39.7812 85.5889 40.2292 85.5889 40.7188C85.5889 41.4271 85.4326 42.026 85.1201 42.5156C84.8128 43 84.3779 43.3698 83.8154 43.625C83.2529 43.875 82.5915 44 81.8311 44ZM92.5811 42.5547V38.2031C92.5811 37.8698 92.5133 37.5807 92.3779 37.3359C92.2477 37.0859 92.0498 36.8932 91.7842 36.7578C91.5186 36.6224 91.1904 36.5547 90.7998 36.5547C90.4352 36.5547 90.1149 36.6172 89.8389 36.7422C89.568 36.8672 89.3545 37.0312 89.1982 37.2344C89.0472 37.4375 88.9717 37.6562 88.9717 37.8906H87.5264C87.5264 37.5885 87.6045 37.2891 87.7607 36.9922C87.917 36.6953 88.141 36.4271 88.4326 36.1875C88.7295 35.9427 89.0837 35.75 89.4951 35.6094C89.9118 35.4635 90.3753 35.3906 90.8857 35.3906C91.5003 35.3906 92.042 35.4948 92.5107 35.7031C92.9847 35.9115 93.3545 36.2266 93.6201 36.6484C93.891 37.0651 94.0264 37.5885 94.0264 38.2188V42.1562C94.0264 42.4375 94.0498 42.737 94.0967 43.0547C94.1488 43.3724 94.2243 43.6458 94.3232 43.875V44H92.8154C92.7425 43.8333 92.6852 43.612 92.6436 43.3359C92.6019 43.0547 92.5811 42.7943 92.5811 42.5547ZM92.8311 38.875L92.8467 39.8906H91.3857C90.9743 39.8906 90.6071 39.9245 90.2842 39.9922C89.9613 40.0547 89.6904 40.151 89.4717 40.2812C89.2529 40.4115 89.0863 40.5755 88.9717 40.7734C88.8571 40.9661 88.7998 41.1927 88.7998 41.4531C88.7998 41.7188 88.8597 41.9609 88.9795 42.1797C89.0993 42.3984 89.279 42.5729 89.5186 42.7031C89.7633 42.8281 90.0628 42.8906 90.417 42.8906C90.8597 42.8906 91.2503 42.7969 91.5889 42.6094C91.9274 42.4219 92.1956 42.1927 92.3936 41.9219C92.5967 41.651 92.7061 41.388 92.7217 41.1328L93.3389 41.8281C93.3024 42.0469 93.2035 42.2891 93.042 42.5547C92.8805 42.8203 92.6644 43.0755 92.3936 43.3203C92.1279 43.5599 91.8102 43.7604 91.4404 43.9219C91.0758 44.0781 90.6644 44.1562 90.2061 44.1562C89.6331 44.1562 89.1305 44.0443 88.6982 43.8203C88.2712 43.5964 87.9378 43.2969 87.6982 42.9219C87.4639 42.5417 87.3467 42.1172 87.3467 41.6484C87.3467 41.1953 87.4352 40.7969 87.6123 40.4531C87.7894 40.1042 88.0446 39.8151 88.3779 39.5859C88.7113 39.3516 89.1123 39.1745 89.5811 39.0547C90.0498 38.9349 90.5732 38.875 91.1514 38.875H92.8311ZM97.7373 37.2266V44H96.2842V35.5469H97.6592L97.7373 37.2266ZM97.4404 39.4531L96.7686 39.4297C96.7738 38.8516 96.8493 38.3177 96.9951 37.8281C97.141 37.3333 97.3571 36.9036 97.6436 36.5391C97.93 36.1745 98.2868 35.8932 98.7139 35.6953C99.141 35.4922 99.6357 35.3906 100.198 35.3906C100.594 35.3906 100.959 35.4479 101.292 35.5625C101.625 35.6719 101.914 35.8464 102.159 36.0859C102.404 36.3255 102.594 36.6328 102.729 37.0078C102.865 37.3828 102.933 37.8359 102.933 38.3672V44H101.487V38.4375C101.487 37.9948 101.412 37.6406 101.261 37.375C101.115 37.1094 100.907 36.9167 100.636 36.7969C100.365 36.6719 100.047 36.6094 99.6826 36.6094C99.2555 36.6094 98.8988 36.6849 98.6123 36.8359C98.3258 36.987 98.0967 37.1953 97.9248 37.4609C97.7529 37.7266 97.6279 38.0312 97.5498 38.375C97.4769 38.7135 97.4404 39.0729 97.4404 39.4531ZM102.917 38.6562L101.948 38.9531C101.953 38.4896 102.029 38.0443 102.175 37.6172C102.326 37.1901 102.542 36.8099 102.823 36.4766C103.11 36.1432 103.461 35.8802 103.878 35.6875C104.295 35.4896 104.771 35.3906 105.308 35.3906C105.761 35.3906 106.162 35.4505 106.511 35.5703C106.865 35.6901 107.162 35.875 107.401 36.125C107.646 36.3698 107.831 36.6849 107.956 37.0703C108.081 37.4557 108.144 37.9141 108.144 38.4453V44H106.69V38.4297C106.69 37.9557 106.615 37.5885 106.464 37.3281C106.318 37.0625 106.11 36.8776 105.839 36.7734C105.573 36.6641 105.256 36.6094 104.886 36.6094C104.568 36.6094 104.287 36.6641 104.042 36.7734C103.797 36.8828 103.591 37.0339 103.425 37.2266C103.258 37.4141 103.131 37.6302 103.042 37.875C102.959 38.1198 102.917 38.3802 102.917 38.6562ZM110.323 32H111.776V42.3594L111.651 44H110.323V32ZM117.487 39.7031V39.8672C117.487 40.4818 117.414 41.0521 117.269 41.5781C117.123 42.099 116.909 42.5521 116.628 42.9375C116.347 43.3229 116.003 43.6224 115.597 43.8359C115.19 44.0495 114.724 44.1562 114.198 44.1562C113.662 44.1562 113.19 44.0651 112.784 43.8828C112.383 43.6953 112.045 43.4271 111.769 43.0781C111.493 42.7292 111.271 42.3073 111.104 41.8125C110.943 41.3177 110.831 40.7604 110.769 40.1406V39.4219C110.831 38.7969 110.943 38.237 111.104 37.7422C111.271 37.2474 111.493 36.8255 111.769 36.4766C112.045 36.1224 112.383 35.8542 112.784 35.6719C113.185 35.4844 113.651 35.3906 114.183 35.3906C114.714 35.3906 115.185 35.4948 115.597 35.7031C116.008 35.9062 116.352 36.1979 116.628 36.5781C116.909 36.9583 117.123 37.4141 117.269 37.9453C117.414 38.4714 117.487 39.0573 117.487 39.7031ZM116.034 39.8672V39.7031C116.034 39.2812 115.995 38.8854 115.917 38.5156C115.839 38.1406 115.714 37.8125 115.542 37.5312C115.37 37.2448 115.144 37.0208 114.862 36.8594C114.581 36.6927 114.235 36.6094 113.823 36.6094C113.459 36.6094 113.141 36.6719 112.87 36.7969C112.604 36.9219 112.378 37.0911 112.19 37.3047C112.003 37.513 111.849 37.7526 111.729 38.0234C111.615 38.2891 111.529 38.5651 111.472 38.8516V40.7344C111.555 41.099 111.69 41.4505 111.878 41.7891C112.071 42.1224 112.326 42.3958 112.644 42.6094C112.966 42.8229 113.365 42.9297 113.839 42.9297C114.229 42.9297 114.563 42.8516 114.839 42.6953C115.12 42.5339 115.347 42.3125 115.519 42.0312C115.696 41.75 115.826 41.4245 115.909 41.0547C115.993 40.6849 116.034 40.2891 116.034 39.8672ZM120.886 35.5469V44H119.433V35.5469H120.886ZM119.323 33.3047C119.323 33.0703 119.394 32.8724 119.534 32.7109C119.68 32.5495 119.894 32.4688 120.175 32.4688C120.451 32.4688 120.662 32.5495 120.808 32.7109C120.959 32.8724 121.034 33.0703 121.034 33.3047C121.034 33.5286 120.959 33.7214 120.808 33.8828C120.662 34.0391 120.451 34.1172 120.175 34.1172C119.894 34.1172 119.68 34.0391 119.534 33.8828C119.394 33.7214 119.323 33.5286 119.323 33.3047ZM124.776 32V44H123.323V32H124.776ZM128.667 35.5469V44H127.214V35.5469H128.667ZM127.104 33.3047C127.104 33.0703 127.175 32.8724 127.315 32.7109C127.461 32.5495 127.675 32.4688 127.956 32.4688C128.232 32.4688 128.443 32.5495 128.589 32.7109C128.74 32.8724 128.815 33.0703 128.815 33.3047C128.815 33.5286 128.74 33.7214 128.589 33.8828C128.443 34.0391 128.232 34.1172 127.956 34.1172C127.675 34.1172 127.461 34.0391 127.315 33.8828C127.175 33.7214 127.104 33.5286 127.104 33.3047Z" fill="#3F4043"/>
</svg>
