<svg width="316" height="52" viewBox="0 0 316 52" fill="none" xmlns="http://www.w3.org/2000/svg">
<path d="M58.4521 0.5H44.545V6.42875H54.7867V45.5713H44.545V51.5H58.4521C59.7278 51.5 60.7632 50.4729 60.7632 49.2074V2.79264C60.7632 1.52708 59.7278 0.5 58.4521 0.5Z" fill="#00BFA5"/>
<path d="M2.54791 0.5H16.4549V6.42875H6.21329V45.5713H16.4549V51.5H2.54791C1.27217 51.5 0.236816 50.4729 0.236816 49.2074V45.5713V6.42875V2.79264C0.236816 1.52708 1.27217 0.5 2.54791 0.5Z" fill="#4285F4"/>
<path d="M49.1982 10.8984H39.7444V41.0994H49.1982V10.8984Z" fill="#00BFA5"/>
<path d="M49.1982 41.1018H39.7444L25.7731 15.5215H35.2269L49.1982 41.1018Z" fill="#1CE9B6"/>
<path d="M11.8018 41.1016H21.2556L21.2556 10.9006H11.8018L11.8018 41.1016Z" fill="#4285F4"/>
<path d="M11.8018 41.1018H21.2556L35.2292 15.5215H25.773L11.8018 41.1018Z" fill="#4FC3F7"/>
<path d="M82.7749 21.168L86.1733 7.9375H87.9546L87.7554 11.3477L84.1226 25H82.271L82.7749 21.168ZM80.2319 7.9375L82.9858 21.0625L83.2319 25H81.2632L77.314 7.9375H80.2319ZM91.8101 21.0273L94.5288 7.9375H97.4585L93.5093 25H91.5405L91.8101 21.0273ZM88.646 7.9375L92.0093 21.2031L92.5015 25H90.6499L87.0757 11.3477L86.8882 7.9375H88.646ZM98.4429 18.8008V18.5312C98.4429 17.6172 98.5757 16.7695 98.8413 15.9883C99.1069 15.1992 99.4897 14.5156 99.9897 13.9375C100.498 13.3516 101.115 12.8984 101.841 12.5781C102.576 12.25 103.404 12.0859 104.326 12.0859C105.255 12.0859 106.083 12.25 106.81 12.5781C107.544 12.8984 108.166 13.3516 108.673 13.9375C109.181 14.5156 109.568 15.1992 109.833 15.9883C110.099 16.7695 110.232 17.6172 110.232 18.5312V18.8008C110.232 19.7148 110.099 20.5625 109.833 21.3438C109.568 22.125 109.181 22.8086 108.673 23.3945C108.166 23.9727 107.548 24.4258 106.822 24.7539C106.095 25.0742 105.271 25.2344 104.349 25.2344C103.419 25.2344 102.587 25.0742 101.853 24.7539C101.126 24.4258 100.509 23.9727 100.001 23.3945C99.4937 22.8086 99.1069 22.125 98.8413 21.3438C98.5757 20.5625 98.4429 19.7148 98.4429 18.8008ZM101.267 18.5312V18.8008C101.267 19.3711 101.326 19.9102 101.443 20.418C101.56 20.9258 101.744 21.3711 101.994 21.7539C102.244 22.1367 102.564 22.4375 102.955 22.6562C103.345 22.875 103.81 22.9844 104.349 22.9844C104.873 22.9844 105.326 22.875 105.708 22.6562C106.099 22.4375 106.419 22.1367 106.669 21.7539C106.919 21.3711 107.103 20.9258 107.22 20.418C107.345 19.9102 107.408 19.3711 107.408 18.8008V18.5312C107.408 17.9688 107.345 17.4375 107.22 16.9375C107.103 16.4297 106.916 15.9805 106.658 15.5898C106.408 15.1992 106.087 14.8945 105.697 14.6758C105.314 14.4492 104.857 14.3359 104.326 14.3359C103.794 14.3359 103.333 14.4492 102.943 14.6758C102.56 14.8945 102.244 15.1992 101.994 15.5898C101.744 15.9805 101.56 16.4297 101.443 16.9375C101.326 17.4375 101.267 17.9688 101.267 18.5312ZM115.423 14.8984V25H112.599V12.3203H115.259L115.423 14.8984ZM114.966 18.1914L114.005 18.1797C114.005 17.3047 114.115 16.4961 114.333 15.7539C114.552 15.0117 114.873 14.3672 115.294 13.8203C115.716 13.2656 116.24 12.8398 116.865 12.543C117.498 12.2383 118.228 12.0859 119.056 12.0859C119.634 12.0859 120.162 12.1719 120.638 12.3438C121.123 12.5078 121.541 12.7695 121.892 13.1289C122.251 13.4883 122.525 13.9492 122.712 14.5117C122.908 15.0742 123.005 15.7539 123.005 16.5508V25H120.181V16.7969C120.181 16.1797 120.087 15.6953 119.9 15.3438C119.72 14.9922 119.458 14.7422 119.115 14.5938C118.779 14.4375 118.376 14.3594 117.908 14.3594C117.376 14.3594 116.923 14.4609 116.548 14.6641C116.181 14.8672 115.88 15.1445 115.646 15.4961C115.412 15.8477 115.24 16.2539 115.13 16.7148C115.021 17.1758 114.966 17.668 114.966 18.1914ZM122.83 17.4414L121.505 17.7344C121.505 16.9688 121.611 16.2461 121.822 15.5664C122.041 14.8789 122.357 14.2773 122.771 13.7617C123.193 13.2383 123.712 12.8281 124.33 12.5312C124.947 12.2344 125.654 12.0859 126.451 12.0859C127.099 12.0859 127.677 12.1758 128.185 12.3555C128.701 12.5273 129.138 12.8008 129.498 13.1758C129.857 13.5508 130.13 14.0391 130.318 14.6406C130.505 15.2344 130.599 15.9531 130.599 16.7969V25H127.763V16.7852C127.763 16.1445 127.669 15.6484 127.482 15.2969C127.302 14.9453 127.044 14.7031 126.708 14.5703C126.373 14.4297 125.97 14.3594 125.501 14.3594C125.064 14.3594 124.677 14.4414 124.341 14.6055C124.013 14.7617 123.736 14.9844 123.509 15.2734C123.283 15.5547 123.111 15.8789 122.994 16.2461C122.884 16.6133 122.83 17.0117 122.83 17.4414ZM139.095 25.2344C138.158 25.2344 137.31 25.082 136.552 24.7773C135.802 24.4648 135.162 24.0312 134.63 23.4766C134.107 22.9219 133.705 22.2695 133.423 21.5195C133.142 20.7695 133.001 19.9609 133.001 19.0938V18.625C133.001 17.6328 133.146 16.7344 133.435 15.9297C133.724 15.125 134.126 14.4375 134.642 13.8672C135.158 13.2891 135.767 12.8477 136.47 12.543C137.173 12.2383 137.935 12.0859 138.755 12.0859C139.662 12.0859 140.455 12.2383 141.134 12.543C141.814 12.8477 142.376 13.2773 142.822 13.832C143.275 14.3789 143.611 15.0312 143.83 15.7891C144.056 16.5469 144.169 17.3828 144.169 18.2969V19.5039H134.373V17.4766H141.38V17.2539C141.365 16.7461 141.263 16.2695 141.076 15.8242C140.896 15.3789 140.619 15.0195 140.244 14.7461C139.869 14.4727 139.369 14.3359 138.744 14.3359C138.275 14.3359 137.857 14.4375 137.49 14.6406C137.13 14.8359 136.83 15.1211 136.587 15.4961C136.345 15.8711 136.158 16.3242 136.025 16.8555C135.9 17.3789 135.837 17.9688 135.837 18.625V19.0938C135.837 19.6484 135.912 20.1641 136.06 20.6406C136.216 21.1094 136.443 21.5195 136.74 21.8711C137.037 22.2227 137.396 22.5 137.818 22.7031C138.24 22.8984 138.72 22.9961 139.259 22.9961C139.939 22.9961 140.544 22.8594 141.076 22.5859C141.607 22.3125 142.068 21.9258 142.458 21.4258L143.947 22.8672C143.673 23.2656 143.318 23.6484 142.88 24.0156C142.443 24.375 141.908 24.668 141.275 24.8945C140.65 25.1211 139.923 25.2344 139.095 25.2344ZM149.173 15.0273V25H146.349V12.3203H149.009L149.173 15.0273ZM148.669 18.1914L147.755 18.1797C147.763 17.2812 147.888 16.457 148.13 15.707C148.38 14.957 148.724 14.3125 149.162 13.7734C149.607 13.2344 150.138 12.8203 150.755 12.5312C151.373 12.2344 152.06 12.0859 152.818 12.0859C153.427 12.0859 153.978 12.1719 154.47 12.3438C154.97 12.5078 155.396 12.7773 155.748 13.1523C156.107 13.5273 156.38 14.0156 156.568 14.6172C156.755 15.2109 156.849 15.9414 156.849 16.8086V25H154.013V16.7969C154.013 16.1875 153.923 15.707 153.744 15.3555C153.572 14.9961 153.318 14.7422 152.982 14.5938C152.654 14.4375 152.244 14.3594 151.751 14.3594C151.267 14.3594 150.833 14.4609 150.451 14.6641C150.068 14.8672 149.744 15.1445 149.478 15.4961C149.22 15.8477 149.021 16.2539 148.88 16.7148C148.74 17.1758 148.669 17.668 148.669 18.1914ZM178.423 7.9375V25H175.505V7.9375H178.423ZM183.779 7.9375V10.2812H170.197V7.9375H183.779ZM190.212 25.2344C189.275 25.2344 188.427 25.082 187.669 24.7773C186.919 24.4648 186.279 24.0312 185.748 23.4766C185.224 22.9219 184.822 22.2695 184.541 21.5195C184.259 20.7695 184.119 19.9609 184.119 19.0938V18.625C184.119 17.6328 184.263 16.7344 184.552 15.9297C184.841 15.125 185.244 14.4375 185.759 13.8672C186.275 13.2891 186.884 12.8477 187.587 12.543C188.291 12.2383 189.052 12.0859 189.873 12.0859C190.779 12.0859 191.572 12.2383 192.251 12.543C192.931 12.8477 193.494 13.2773 193.939 13.832C194.392 14.3789 194.728 15.0312 194.947 15.7891C195.173 16.5469 195.287 17.3828 195.287 18.2969V19.5039H185.49V17.4766H192.498V17.2539C192.482 16.7461 192.38 16.2695 192.193 15.8242C192.013 15.3789 191.736 15.0195 191.361 14.7461C190.986 14.4727 190.486 14.3359 189.861 14.3359C189.392 14.3359 188.974 14.4375 188.607 14.6406C188.248 14.8359 187.947 15.1211 187.705 15.4961C187.462 15.8711 187.275 16.3242 187.142 16.8555C187.017 17.3789 186.955 17.9688 186.955 18.625V19.0938C186.955 19.6484 187.029 20.1641 187.177 20.6406C187.333 21.1094 187.56 21.5195 187.857 21.8711C188.154 22.2227 188.513 22.5 188.935 22.7031C189.357 22.8984 189.837 22.9961 190.376 22.9961C191.056 22.9961 191.662 22.8594 192.193 22.5859C192.724 22.3125 193.185 21.9258 193.576 21.4258L195.064 22.8672C194.791 23.2656 194.435 23.6484 193.998 24.0156C193.56 24.375 193.025 24.668 192.392 24.8945C191.767 25.1211 191.041 25.2344 190.212 25.2344ZM202.669 22.9844C203.13 22.9844 203.544 22.8945 203.912 22.7148C204.287 22.5273 204.587 22.2695 204.814 21.9414C205.048 21.6133 205.177 21.2344 205.201 20.8047H207.861C207.845 21.625 207.603 22.3711 207.134 23.043C206.666 23.7148 206.044 24.25 205.271 24.6484C204.498 25.0391 203.642 25.2344 202.705 25.2344C201.736 25.2344 200.892 25.0703 200.173 24.7422C199.455 24.4062 198.857 23.9453 198.38 23.3594C197.904 22.7734 197.544 22.0977 197.302 21.332C197.068 20.5664 196.951 19.7461 196.951 18.8711V18.4609C196.951 17.5859 197.068 16.7656 197.302 16C197.544 15.2266 197.904 14.5469 198.38 13.9609C198.857 13.375 199.455 12.918 200.173 12.5898C200.892 12.2539 201.732 12.0859 202.693 12.0859C203.708 12.0859 204.599 12.2891 205.365 12.6953C206.13 13.0938 206.732 13.6523 207.169 14.3711C207.615 15.082 207.845 15.9102 207.861 16.8555H205.201C205.177 16.3867 205.06 15.9648 204.849 15.5898C204.646 15.207 204.357 14.9023 203.982 14.6758C203.615 14.4492 203.173 14.3359 202.658 14.3359C202.087 14.3359 201.615 14.4531 201.24 14.6875C200.865 14.9141 200.572 15.2266 200.361 15.625C200.15 16.0156 199.998 16.457 199.904 16.9492C199.818 17.4336 199.775 17.9375 199.775 18.4609V18.8711C199.775 19.3945 199.818 19.9023 199.904 20.3945C199.99 20.8867 200.138 21.3281 200.349 21.7188C200.568 22.1016 200.865 22.4102 201.24 22.6445C201.615 22.8711 202.091 22.9844 202.669 22.9844ZM212.818 7V25H210.005V7H212.818ZM212.326 18.1914L211.412 18.1797C211.419 17.3047 211.541 16.4961 211.775 15.7539C212.017 15.0117 212.353 14.3672 212.783 13.8203C213.22 13.2656 213.744 12.8398 214.353 12.543C214.962 12.2383 215.638 12.0859 216.38 12.0859C217.005 12.0859 217.568 12.1719 218.068 12.3438C218.576 12.5156 219.013 12.793 219.38 13.1758C219.748 13.5508 220.025 14.043 220.212 14.6523C220.408 15.2539 220.505 15.9883 220.505 16.8555V25H217.669V16.832C217.669 16.2227 217.58 15.7383 217.4 15.3789C217.228 15.0195 216.974 14.7617 216.638 14.6055C216.302 14.4414 215.892 14.3594 215.408 14.3594C214.9 14.3594 214.451 14.4609 214.06 14.6641C213.677 14.8672 213.357 15.1445 213.099 15.4961C212.841 15.8477 212.646 16.2539 212.513 16.7148C212.388 17.1758 212.326 17.668 212.326 18.1914ZM226.189 14.8984V25H223.365V12.3203H226.025L226.189 14.8984ZM225.732 18.1914L224.771 18.1797C224.771 17.3047 224.88 16.4961 225.099 15.7539C225.318 15.0117 225.638 14.3672 226.06 13.8203C226.482 13.2656 227.005 12.8398 227.63 12.543C228.263 12.2383 228.994 12.0859 229.822 12.0859C230.4 12.0859 230.927 12.1719 231.404 12.3438C231.888 12.5078 232.306 12.7695 232.658 13.1289C233.017 13.4883 233.291 13.9492 233.478 14.5117C233.673 15.0742 233.771 15.7539 233.771 16.5508V25H230.947V16.7969C230.947 16.1797 230.853 15.6953 230.666 15.3438C230.486 14.9922 230.224 14.7422 229.88 14.5938C229.544 14.4375 229.142 14.3594 228.673 14.3594C228.142 14.3594 227.689 14.4609 227.314 14.6641C226.947 14.8672 226.646 15.1445 226.412 15.4961C226.177 15.8477 226.005 16.2539 225.896 16.7148C225.787 17.1758 225.732 17.668 225.732 18.1914ZM233.595 17.4414L232.271 17.7344C232.271 16.9688 232.376 16.2461 232.587 15.5664C232.806 14.8789 233.123 14.2773 233.537 13.7617C233.958 13.2383 234.478 12.8281 235.095 12.5312C235.712 12.2344 236.419 12.0859 237.216 12.0859C237.865 12.0859 238.443 12.1758 238.951 12.3555C239.466 12.5273 239.904 12.8008 240.263 13.1758C240.623 13.5508 240.896 14.0391 241.083 14.6406C241.271 15.2344 241.365 15.9531 241.365 16.7969V25H238.529V16.7852C238.529 16.1445 238.435 15.6484 238.248 15.2969C238.068 14.9453 237.81 14.7031 237.474 14.5703C237.138 14.4297 236.736 14.3594 236.267 14.3594C235.83 14.3594 235.443 14.4414 235.107 14.6055C234.779 14.7617 234.501 14.9844 234.275 15.2734C234.048 15.5547 233.876 15.8789 233.759 16.2461C233.65 16.6133 233.595 17.0117 233.595 17.4414ZM251.419 22.457V16.4102C251.419 15.957 251.337 15.5664 251.173 15.2383C251.009 14.9102 250.759 14.6562 250.423 14.4766C250.095 14.2969 249.681 14.207 249.181 14.207C248.72 14.207 248.322 14.2852 247.986 14.4414C247.65 14.5977 247.388 14.8086 247.201 15.0742C247.013 15.3398 246.919 15.6406 246.919 15.9766H244.107C244.107 15.4766 244.228 14.9922 244.47 14.5234C244.712 14.0547 245.064 13.6367 245.525 13.2695C245.986 12.9023 246.537 12.6133 247.177 12.4023C247.818 12.1914 248.537 12.0859 249.333 12.0859C250.287 12.0859 251.13 12.2461 251.865 12.5664C252.607 12.8867 253.189 13.3711 253.611 14.0195C254.041 14.6602 254.255 15.4648 254.255 16.4336V22.0703C254.255 22.6484 254.294 23.168 254.373 23.6289C254.458 24.082 254.58 24.4766 254.736 24.8125V25H251.841C251.708 24.6953 251.603 24.3086 251.525 23.8398C251.455 23.3633 251.419 22.9023 251.419 22.457ZM251.83 17.2891L251.853 19.0352H249.826C249.302 19.0352 248.841 19.0859 248.443 19.1875C248.044 19.2812 247.712 19.4219 247.447 19.6094C247.181 19.7969 246.982 20.0234 246.849 20.2891C246.716 20.5547 246.65 20.8555 246.65 21.1914C246.65 21.5273 246.728 21.8359 246.884 22.1172C247.041 22.3906 247.267 22.6055 247.564 22.7617C247.869 22.918 248.236 22.9961 248.666 22.9961C249.244 22.9961 249.748 22.8789 250.177 22.6445C250.615 22.4023 250.958 22.1094 251.208 21.7656C251.458 21.4141 251.591 21.082 251.607 20.7695L252.521 22.0234C252.427 22.3438 252.267 22.6875 252.041 23.0547C251.814 23.4219 251.517 23.7734 251.15 24.1094C250.791 24.4375 250.357 24.707 249.849 24.918C249.349 25.1289 248.771 25.2344 248.115 25.2344C247.287 25.2344 246.548 25.0703 245.9 24.7422C245.251 24.4062 244.744 23.957 244.376 23.3945C244.009 22.8242 243.826 22.1797 243.826 21.4609C243.826 20.7891 243.951 20.1953 244.201 19.6797C244.458 19.1562 244.833 18.7188 245.326 18.3672C245.826 18.0156 246.435 17.75 247.154 17.5703C247.873 17.3828 248.693 17.2891 249.615 17.2891H251.83ZM260.056 7V25H257.22V7H260.056ZM267.931 12.3203L262.412 18.4375L259.388 21.5312L258.65 19.1406L260.935 16.3164L264.521 12.3203H267.931ZM265.13 25L261.017 19.0469L262.798 17.0664L268.4 25H265.13ZM275.08 25.2344C274.142 25.2344 273.294 25.082 272.537 24.7773C271.787 24.4648 271.146 24.0312 270.615 23.4766C270.091 22.9219 269.689 22.2695 269.408 21.5195C269.126 20.7695 268.986 19.9609 268.986 19.0938V18.625C268.986 17.6328 269.13 16.7344 269.419 15.9297C269.708 15.125 270.111 14.4375 270.626 13.8672C271.142 13.2891 271.751 12.8477 272.455 12.543C273.158 12.2383 273.919 12.0859 274.74 12.0859C275.646 12.0859 276.439 12.2383 277.119 12.543C277.798 12.8477 278.361 13.2773 278.806 13.832C279.259 14.3789 279.595 15.0312 279.814 15.7891C280.041 16.5469 280.154 17.3828 280.154 18.2969V19.5039H270.357V17.4766H277.365V17.2539C277.349 16.7461 277.248 16.2695 277.06 15.8242C276.88 15.3789 276.603 15.0195 276.228 14.7461C275.853 14.4727 275.353 14.3359 274.728 14.3359C274.259 14.3359 273.841 14.4375 273.474 14.6406C273.115 14.8359 272.814 15.1211 272.572 15.4961C272.33 15.8711 272.142 16.3242 272.009 16.8555C271.884 17.3789 271.822 17.9688 271.822 18.625V19.0938C271.822 19.6484 271.896 20.1641 272.044 20.6406C272.201 21.1094 272.427 21.5195 272.724 21.8711C273.021 22.2227 273.38 22.5 273.802 22.7031C274.224 22.8984 274.705 22.9961 275.244 22.9961C275.923 22.9961 276.529 22.8594 277.06 22.5859C277.591 22.3125 278.052 21.9258 278.443 21.4258L279.931 22.8672C279.658 23.2656 279.302 23.6484 278.865 24.0156C278.427 24.375 277.892 24.668 277.259 24.8945C276.634 25.1211 275.908 25.2344 275.08 25.2344ZM285.193 14.7344V25H282.369V12.3203H285.064L285.193 14.7344ZM289.072 12.2383L289.048 14.8633C288.876 14.832 288.689 14.8086 288.486 14.793C288.291 14.7773 288.095 14.7695 287.9 14.7695C287.416 14.7695 286.99 14.8398 286.623 14.9805C286.255 15.1133 285.947 15.3086 285.697 15.5664C285.455 15.8164 285.267 16.1211 285.134 16.4805C285.001 16.8398 284.923 17.2422 284.9 17.6875L284.255 17.7344C284.255 16.9375 284.333 16.1992 284.49 15.5195C284.646 14.8398 284.88 14.2422 285.193 13.7266C285.513 13.2109 285.912 12.8086 286.388 12.5195C286.873 12.2305 287.431 12.0859 288.064 12.0859C288.236 12.0859 288.419 12.1016 288.615 12.1328C288.818 12.1641 288.97 12.1992 289.072 12.2383ZM297.955 21.5664C297.955 21.2852 297.884 21.0312 297.744 20.8047C297.603 20.5703 297.333 20.3594 296.935 20.1719C296.544 19.9844 295.966 19.8125 295.201 19.6562C294.529 19.5078 293.912 19.332 293.349 19.1289C292.794 18.918 292.318 18.6641 291.919 18.3672C291.521 18.0703 291.212 17.7188 290.994 17.3125C290.775 16.9062 290.666 16.4375 290.666 15.9062C290.666 15.3906 290.779 14.9023 291.005 14.4414C291.232 13.9805 291.556 13.5742 291.978 13.2227C292.4 12.8711 292.912 12.5938 293.513 12.3906C294.123 12.1875 294.802 12.0859 295.552 12.0859C296.615 12.0859 297.525 12.2656 298.283 12.625C299.048 12.9766 299.634 13.457 300.041 14.0664C300.447 14.668 300.65 15.3477 300.65 16.1055H297.826C297.826 15.7695 297.74 15.457 297.568 15.168C297.404 14.8711 297.154 14.6328 296.818 14.4531C296.482 14.2656 296.06 14.1719 295.552 14.1719C295.068 14.1719 294.666 14.25 294.345 14.4062C294.033 14.5547 293.798 14.75 293.642 14.9922C293.494 15.2344 293.419 15.5 293.419 15.7891C293.419 16 293.458 16.1914 293.537 16.3633C293.623 16.5273 293.763 16.6797 293.958 16.8203C294.154 16.9531 294.419 17.0781 294.755 17.1953C295.099 17.3125 295.529 17.4258 296.044 17.5352C297.013 17.7383 297.845 18 298.541 18.3203C299.244 18.6328 299.783 19.0391 300.158 19.5391C300.533 20.0312 300.72 20.6562 300.72 21.4141C300.72 21.9766 300.599 22.4922 300.357 22.9609C300.123 23.4219 299.779 23.8242 299.326 24.168C298.873 24.5039 298.33 24.7656 297.697 24.9531C297.072 25.1406 296.369 25.2344 295.587 25.2344C294.439 25.2344 293.466 25.0312 292.669 24.625C291.873 24.2109 291.267 23.6836 290.853 23.043C290.447 22.3945 290.244 21.7227 290.244 21.0273H292.974C293.005 21.5508 293.15 21.9688 293.408 22.2812C293.673 22.5859 294.001 22.8086 294.392 22.9492C294.791 23.082 295.201 23.1484 295.623 23.1484C296.13 23.1484 296.556 23.082 296.9 22.9492C297.244 22.8086 297.505 22.6211 297.685 22.3867C297.865 22.1445 297.955 21.8711 297.955 21.5664Z" fill="white"/>
<path d="M82.1382 38.6797H79.2554L79.2397 37.4688H81.8569C82.2892 37.4688 82.6668 37.3958 82.9897 37.25C83.3127 37.1042 83.5627 36.8958 83.7397 36.625C83.922 36.349 84.0132 36.0208 84.0132 35.6406C84.0132 35.224 83.9325 34.8854 83.771 34.625C83.6147 34.3594 83.3726 34.1667 83.0444 34.0469C82.7215 33.9219 82.3101 33.8594 81.8101 33.8594H79.5913V44H78.0835V32.625H81.8101C82.3934 32.625 82.9142 32.6849 83.3726 32.8047C83.8309 32.9193 84.2189 33.1016 84.5366 33.3516C84.8595 33.5964 85.1043 33.9089 85.271 34.2891C85.4377 34.6693 85.521 35.125 85.521 35.6562C85.521 36.125 85.4012 36.5495 85.1616 36.9297C84.922 37.3047 84.5887 37.612 84.1616 37.8516C83.7397 38.0911 83.245 38.2448 82.6772 38.3125L82.1382 38.6797ZM82.0679 44H78.6616L79.5132 42.7734H82.0679C82.547 42.7734 82.9533 42.6901 83.2866 42.5234C83.6252 42.3568 83.883 42.1224 84.0601 41.8203C84.2371 41.513 84.3257 41.151 84.3257 40.7344C84.3257 40.3125 84.2502 39.9479 84.0991 39.6406C83.9481 39.3333 83.7111 39.0964 83.3882 38.9297C83.0653 38.763 82.6486 38.6797 82.1382 38.6797H79.9897L80.0054 37.4688H82.9429L83.2632 37.9062C83.8101 37.9531 84.2736 38.1094 84.6538 38.375C85.034 38.6354 85.3231 38.9688 85.521 39.375C85.7241 39.7812 85.8257 40.2292 85.8257 40.7188C85.8257 41.4271 85.6694 42.026 85.3569 42.5156C85.0496 43 84.6147 43.3698 84.0522 43.625C83.4897 43.875 82.8283 44 82.0679 44ZM92.8179 42.5547V38.2031C92.8179 37.8698 92.7502 37.5807 92.6147 37.3359C92.4845 37.0859 92.2866 36.8932 92.021 36.7578C91.7554 36.6224 91.4272 36.5547 91.0366 36.5547C90.672 36.5547 90.3517 36.6172 90.0757 36.7422C89.8049 36.8672 89.5913 37.0312 89.4351 37.2344C89.284 37.4375 89.2085 37.6562 89.2085 37.8906H87.7632C87.7632 37.5885 87.8413 37.2891 87.9976 36.9922C88.1538 36.6953 88.3778 36.4271 88.6694 36.1875C88.9663 35.9427 89.3205 35.75 89.7319 35.6094C90.1486 35.4635 90.6121 35.3906 91.1226 35.3906C91.7371 35.3906 92.2788 35.4948 92.7476 35.7031C93.2215 35.9115 93.5913 36.2266 93.8569 36.6484C94.1278 37.0651 94.2632 37.5885 94.2632 38.2188V42.1562C94.2632 42.4375 94.2866 42.737 94.3335 43.0547C94.3856 43.3724 94.4611 43.6458 94.5601 43.875V44H93.0522C92.9793 43.8333 92.922 43.612 92.8804 43.3359C92.8387 43.0547 92.8179 42.7943 92.8179 42.5547ZM93.0679 38.875L93.0835 39.8906H91.6226C91.2111 39.8906 90.8439 39.9245 90.521 39.9922C90.1981 40.0547 89.9272 40.151 89.7085 40.2812C89.4897 40.4115 89.3231 40.5755 89.2085 40.7734C89.0939 40.9661 89.0366 41.1927 89.0366 41.4531C89.0366 41.7188 89.0965 41.9609 89.2163 42.1797C89.3361 42.3984 89.5158 42.5729 89.7554 42.7031C90.0002 42.8281 90.2996 42.8906 90.6538 42.8906C91.0965 42.8906 91.4871 42.7969 91.8257 42.6094C92.1642 42.4219 92.4325 42.1927 92.6304 41.9219C92.8335 41.651 92.9429 41.388 92.9585 41.1328L93.5757 41.8281C93.5392 42.0469 93.4403 42.2891 93.2788 42.5547C93.1174 42.8203 92.9012 43.0755 92.6304 43.3203C92.3647 43.5599 92.047 43.7604 91.6772 43.9219C91.3127 44.0781 90.9012 44.1562 90.4429 44.1562C89.87 44.1562 89.3674 44.0443 88.9351 43.8203C88.508 43.5964 88.1746 43.2969 87.9351 42.9219C87.7007 42.5417 87.5835 42.1172 87.5835 41.6484C87.5835 41.1953 87.672 40.7969 87.8491 40.4531C88.0262 40.1042 88.2814 39.8151 88.6147 39.5859C88.9481 39.3516 89.3491 39.1745 89.8179 39.0547C90.2866 38.9349 90.8101 38.875 91.3882 38.875H93.0679ZM97.9741 37.2266V44H96.521V35.5469H97.896L97.9741 37.2266ZM97.6772 39.4531L97.0054 39.4297C97.0106 38.8516 97.0861 38.3177 97.2319 37.8281C97.3778 37.3333 97.5939 36.9036 97.8804 36.5391C98.1668 36.1745 98.5236 35.8932 98.9507 35.6953C99.3778 35.4922 99.8726 35.3906 100.435 35.3906C100.831 35.3906 101.195 35.4479 101.529 35.5625C101.862 35.6719 102.151 35.8464 102.396 36.0859C102.641 36.3255 102.831 36.6328 102.966 37.0078C103.102 37.3828 103.169 37.8359 103.169 38.3672V44H101.724V38.4375C101.724 37.9948 101.649 37.6406 101.498 37.375C101.352 37.1094 101.143 36.9167 100.873 36.7969C100.602 36.6719 100.284 36.6094 99.9194 36.6094C99.4924 36.6094 99.1356 36.6849 98.8491 36.8359C98.5627 36.987 98.3335 37.1953 98.1616 37.4609C97.9897 37.7266 97.8647 38.0312 97.7866 38.375C97.7137 38.7135 97.6772 39.0729 97.6772 39.4531ZM103.154 38.6562L102.185 38.9531C102.19 38.4896 102.266 38.0443 102.412 37.6172C102.563 37.1901 102.779 36.8099 103.06 36.4766C103.347 36.1432 103.698 35.8802 104.115 35.6875C104.531 35.4896 105.008 35.3906 105.544 35.3906C105.998 35.3906 106.399 35.4505 106.748 35.5703C107.102 35.6901 107.399 35.875 107.638 36.125C107.883 36.3698 108.068 36.6849 108.193 37.0703C108.318 37.4557 108.38 37.9141 108.38 38.4453V44H106.927V38.4297C106.927 37.9557 106.852 37.5885 106.701 37.3281C106.555 37.0625 106.347 36.8776 106.076 36.7734C105.81 36.6641 105.492 36.6094 105.123 36.6094C104.805 36.6094 104.524 36.6641 104.279 36.7734C104.034 36.8828 103.828 37.0339 103.662 37.2266C103.495 37.4141 103.367 37.6302 103.279 37.875C103.195 38.1198 103.154 38.3802 103.154 38.6562ZM110.56 32H112.013V42.3594L111.888 44H110.56V32ZM117.724 39.7031V39.8672C117.724 40.4818 117.651 41.0521 117.505 41.5781C117.36 42.099 117.146 42.5521 116.865 42.9375C116.583 43.3229 116.24 43.6224 115.833 43.8359C115.427 44.0495 114.961 44.1562 114.435 44.1562C113.899 44.1562 113.427 44.0651 113.021 43.8828C112.62 43.6953 112.281 43.4271 112.005 43.0781C111.729 42.7292 111.508 42.3073 111.341 41.8125C111.18 41.3177 111.068 40.7604 111.005 40.1406V39.4219C111.068 38.7969 111.18 38.237 111.341 37.7422C111.508 37.2474 111.729 36.8255 112.005 36.4766C112.281 36.1224 112.62 35.8542 113.021 35.6719C113.422 35.4844 113.888 35.3906 114.419 35.3906C114.951 35.3906 115.422 35.4948 115.833 35.7031C116.245 35.9062 116.589 36.1979 116.865 36.5781C117.146 36.9583 117.36 37.4141 117.505 37.9453C117.651 38.4714 117.724 39.0573 117.724 39.7031ZM116.271 39.8672V39.7031C116.271 39.2812 116.232 38.8854 116.154 38.5156C116.076 38.1406 115.951 37.8125 115.779 37.5312C115.607 37.2448 115.38 37.0208 115.099 36.8594C114.818 36.6927 114.472 36.6094 114.06 36.6094C113.695 36.6094 113.378 36.6719 113.107 36.7969C112.841 36.9219 112.615 37.0911 112.427 37.3047C112.24 37.513 112.086 37.7526 111.966 38.0234C111.852 38.2891 111.766 38.5651 111.708 38.8516V40.7344C111.792 41.099 111.927 41.4505 112.115 41.7891C112.307 42.1224 112.563 42.3958 112.88 42.6094C113.203 42.8229 113.602 42.9297 114.076 42.9297C114.466 42.9297 114.8 42.8516 115.076 42.6953C115.357 42.5339 115.583 42.3125 115.755 42.0312C115.932 41.75 116.063 41.4245 116.146 41.0547C116.229 40.6849 116.271 40.2891 116.271 39.8672ZM121.123 35.5469V44H119.669V35.5469H121.123ZM119.56 33.3047C119.56 33.0703 119.63 32.8724 119.771 32.7109C119.917 32.5495 120.13 32.4688 120.412 32.4688C120.688 32.4688 120.899 32.5495 121.044 32.7109C121.195 32.8724 121.271 33.0703 121.271 33.3047C121.271 33.5286 121.195 33.7214 121.044 33.8828C120.899 34.0391 120.688 34.1172 120.412 34.1172C120.13 34.1172 119.917 34.0391 119.771 33.8828C119.63 33.7214 119.56 33.5286 119.56 33.3047ZM125.013 32V44H123.56V32H125.013ZM128.904 35.5469V44H127.451V35.5469H128.904ZM127.341 33.3047C127.341 33.0703 127.412 32.8724 127.552 32.7109C127.698 32.5495 127.912 32.4688 128.193 32.4688C128.469 32.4688 128.68 32.5495 128.826 32.7109C128.977 32.8724 129.052 33.0703 129.052 33.3047C129.052 33.5286 128.977 33.7214 128.826 33.8828C128.68 34.0391 128.469 34.1172 128.193 34.1172C127.912 34.1172 127.698 34.0391 127.552 33.8828C127.412 33.7214 127.341 33.5286 127.341 33.3047Z" fill="white"/>
</svg>
